<svg width="34" height="34" viewBox="0 0 34 34" fill="none" xmlns="http://www.w3.org/2000/svg">
<g clip-path="url(#clip0_316_3185)">
<path d="M21.9583 7.79167C23.5167 7.79167 24.7917 6.51667 24.7917 4.95833C24.7917 3.4 23.5167 2.125 21.9583 2.125C20.4 2.125 19.125 3.4 19.125 4.95833C19.125 6.51667 20.4 7.79167 21.9583 7.79167ZM7.08333 17C3.11667 17 0 20.1167 0 24.0833C0 28.05 3.11667 31.1667 7.08333 31.1667C11.05 31.1667 14.1667 28.05 14.1667 24.0833C14.1667 20.1167 11.05 17 7.08333 17ZM7.08333 29.0417C4.39167 29.0417 2.125 26.775 2.125 24.0833C2.125 21.3917 4.39167 19.125 7.08333 19.125C9.775 19.125 12.0417 21.3917 12.0417 24.0833C12.0417 26.775 9.775 29.0417 7.08333 29.0417ZM15.3 14.875L18.7 11.475L19.8333 12.6083C21.335 14.11 23.205 15.13 25.4433 15.47C26.2933 15.5975 27.0583 14.9175 27.0583 14.0533C27.0583 13.3592 26.5342 12.7642 25.8542 12.6508C24.2817 12.3958 22.9925 11.645 21.9583 10.625L19.2667 7.93333C18.5583 7.36667 17.85 7.08333 17 7.08333C16.15 7.08333 15.4417 7.36667 15.0167 7.93333L11.05 11.9C10.4833 12.4667 10.2 13.175 10.2 13.8833C10.2 14.7333 10.4833 15.4417 11.05 15.8667L15.5833 19.8333V25.5C15.5833 26.2792 16.2208 26.9167 17 26.9167C17.7792 26.9167 18.4167 26.2792 18.4167 25.5V19.2667C18.4167 18.53 18.1333 17.8358 17.6375 17.3117L15.3 14.875ZM26.9167 17C22.95 17 19.8333 20.1167 19.8333 24.0833C19.8333 28.05 22.95 31.1667 26.9167 31.1667C30.8833 31.1667 34 28.05 34 24.0833C34 20.1167 30.8833 17 26.9167 17ZM26.9167 29.0417C24.225 29.0417 21.9583 26.775 21.9583 24.0833C21.9583 21.3917 24.225 19.125 26.9167 19.125C29.6083 19.125 31.875 21.3917 31.875 24.0833C31.875 26.775 29.6083 29.0417 26.9167 29.0417Z" fill="#F7F8FB"/>
</g>
<defs>
<clipPath id="clip0_316_3185">
<rect width="34" height="34" fill="white"/>
</clipPath>
</defs>
</svg>
