<svg width="14" height="12" viewBox="0 0 14 12" fill="none" xmlns="http://www.w3.org/2000/svg">
<path d="M12.4466 4.15376L3.11326 0.300426C2.76011 0.154284 2.37248 0.112389 1.99626 0.179701C1.62004 0.247014 1.27099 0.420714 0.990419 0.680239C0.709851 0.939765 0.509519 1.27425 0.413139 1.64409C0.31676 2.01393 0.328369 2.40364 0.446592 2.76709L1.47326 6.00043L0.419925 9.23376C0.298506 9.59866 0.284867 9.99083 0.380641 10.3633C0.476416 10.7357 0.677542 11.0727 0.959925 11.3338C1.32302 11.6705 1.79811 11.8605 2.29326 11.8671C2.55641 11.8669 2.81695 11.8148 3.05993 11.7138L12.4266 7.86043C12.7914 7.70872 13.1031 7.45237 13.3223 7.12372C13.5416 6.79506 13.6586 6.40884 13.6586 6.01376C13.6586 5.61868 13.5416 5.23246 13.3223 4.9038C13.1031 4.57515 12.7914 4.3188 12.4266 4.16709L12.4466 4.15376ZM2.57326 10.4671C2.45566 10.5156 2.32663 10.5295 2.20142 10.507C2.0762 10.4846 1.96002 10.4268 1.86659 10.3404C1.77858 10.2563 1.71528 10.1497 1.68355 10.0322C1.65182 9.91469 1.65287 9.79073 1.68659 9.67376L2.65992 6.66709H11.8133L2.57326 10.4671ZM2.65992 5.33376L1.66659 2.35376C1.63287 2.23679 1.63182 2.11283 1.66355 1.9953C1.69528 1.87778 1.75858 1.77119 1.84659 1.68709C1.90933 1.62128 1.98487 1.56899 2.06856 1.53345C2.15225 1.49791 2.24233 1.47986 2.33326 1.48043C2.42262 1.4806 2.51104 1.49874 2.59326 1.53376L11.8133 5.33376H2.65992Z" fill="#32AE64"/>
</svg>
