<svg width="14" height="14" viewBox="0 0 14 14" fill="none" xmlns="http://www.w3.org/2000/svg">
<path d="M2.33325 11.0006H5.15992C5.24766 11.0011 5.33463 10.9843 5.41586 10.9511C5.49708 10.9179 5.57096 10.8691 5.63325 10.8073L10.2466 6.18728L12.1399 4.33394C12.2024 4.27197 12.252 4.19823 12.2858 4.11699C12.3197 4.03576 12.3371 3.94862 12.3371 3.86061C12.3371 3.7726 12.3197 3.68547 12.2858 3.60423C12.252 3.52299 12.2024 3.44925 12.1399 3.38728L9.31325 0.527277C9.25128 0.464791 9.17754 0.415195 9.0963 0.381349C9.01506 0.347504 8.92793 0.330078 8.83992 0.330078C8.75191 0.330078 8.66477 0.347504 8.58353 0.381349C8.50229 0.415195 8.42856 0.464791 8.36659 0.527277L6.48659 2.41394L1.85992 7.03394C1.79813 7.09624 1.74925 7.17011 1.71607 7.25134C1.68289 7.33256 1.66608 7.41954 1.66659 7.50728V10.3339C1.66659 10.5108 1.73682 10.6803 1.86185 10.8053C1.98687 10.9304 2.15644 11.0006 2.33325 11.0006ZM8.83992 1.94061L10.7266 3.82728L9.77992 4.77394L7.89325 2.88728L8.83992 1.94061ZM2.99992 7.78061L6.95325 3.82728L8.83992 5.71394L4.88659 9.66728H2.99992V7.78061ZM12.9999 12.3339H0.999919C0.823108 12.3339 0.653538 12.4042 0.528514 12.5292C0.40349 12.6542 0.333252 12.8238 0.333252 13.0006C0.333252 13.1774 0.40349 13.347 0.528514 13.472C0.653538 13.597 0.823108 13.6673 0.999919 13.6673H12.9999C13.1767 13.6673 13.3463 13.597 13.4713 13.472C13.5963 13.347 13.6666 13.1774 13.6666 13.0006C13.6666 12.8238 13.5963 12.6542 13.4713 12.5292C13.3463 12.4042 13.1767 12.3339 12.9999 12.3339Z" fill="#32AE64"/>
</svg>
